<svg width="445" height="79" viewBox="0 0 445 79" fill="none" xmlns="http://www.w3.org/2000/svg">
<path d="M19.629 0C18.4408 0 17.3013 0.472011 16.4611 1.3122C15.6209 2.15238 15.1489 3.29192 15.1489 4.48012V14.3149C15.1255 14.9182 15.2242 15.5201 15.4389 16.0845C15.6537 16.6489 15.9802 17.164 16.3988 17.5992C16.8175 18.0344 17.3196 18.3806 17.8753 18.617C18.4309 18.8535 19.0285 18.9754 19.6324 18.9754C20.2362 18.9754 20.8338 18.8535 21.3894 18.617C21.9451 18.3806 22.4472 18.0344 22.8659 17.5992C23.2845 17.164 23.611 16.6489 23.8258 16.0845C24.0406 15.5201 24.1392 14.9182 24.1158 14.3149V4.48012C24.1141 3.2913 23.6405 2.15178 22.7993 1.31179C21.958 0.471795 20.8178 -1.33609e-06 19.629 0V0Z" fill="#2666DE"/>
<path d="M52.4699 0C51.2811 -1.33608e-06 50.1408 0.471795 49.2996 1.31179C48.4583 2.15178 47.9848 3.2913 47.983 4.48012V14.3149C47.9786 14.9069 48.0914 15.494 48.3149 16.0422C48.5384 16.5905 48.8682 17.0891 49.2853 17.5093C49.7023 17.9295 50.1985 18.263 50.745 18.4906C51.2916 18.7182 51.8778 18.8354 52.4699 18.8353V18.8353C53.6587 18.8336 54.7982 18.36 55.6382 17.5188C56.4782 16.6775 56.95 15.5373 56.95 14.3485V4.48012C56.95 3.29192 56.478 2.15238 55.6378 1.3122C54.7976 0.472011 53.6581 0 52.4699 0V0Z" fill="#2666DE"/>
<path d="M65.547 6.89508H60.3807V14.2947C60.3807 16.4017 59.5437 18.4224 58.0538 19.9123C56.5639 21.4021 54.5432 22.2392 52.4362 22.2392C50.3292 22.2392 48.3085 21.4021 46.8186 19.9123C45.3288 18.4224 44.4918 16.4017 44.4918 14.2947V6.89508H27.5803V14.2947C27.6112 15.3579 27.4286 16.4164 27.0431 17.4078C26.6576 18.3991 26.0771 19.303 25.336 20.0659C24.5949 20.8289 23.7083 21.4354 22.7286 21.8496C21.7489 22.2637 20.6961 22.4771 19.6325 22.4771C18.5688 22.4771 17.516 22.2637 16.5363 21.8496C15.5567 21.4354 14.67 20.8289 13.929 20.0659C13.1879 19.303 12.6074 18.3991 12.2219 17.4078C11.8364 16.4164 11.6537 15.3579 11.6846 14.2947V6.89508H6.51837C4.78959 6.89508 3.13162 7.58184 1.90919 8.80427C0.686755 10.0267 0 11.6847 0 13.4135L0 72.4421C0 74.1708 0.686755 75.8288 1.90919 77.0512C3.13162 78.2737 4.78959 78.9604 6.51837 78.9604H65.547C67.2758 78.9604 68.9337 78.2737 70.1562 77.0512C71.3786 75.8288 72.0653 74.1708 72.0653 72.4421V13.4135C72.0653 11.6847 71.3786 10.0267 70.1562 8.80427C68.9337 7.58184 67.2758 6.89508 65.547 6.89508V6.89508ZM9.33022 28.253H16.7298C17.711 28.2943 18.6384 28.7131 19.3181 29.422C19.9978 30.1309 20.3772 31.075 20.3772 32.0571C20.3772 33.0392 19.9978 33.9833 19.3181 34.6922C18.6384 35.401 17.711 35.8199 16.7298 35.8611H9.33022C8.34899 35.8199 7.42167 35.401 6.74198 34.6922C6.06228 33.9833 5.68279 33.0392 5.68279 32.0571C5.68279 31.075 6.06228 30.1309 6.74198 29.422C7.42167 28.7131 8.34899 28.2943 9.33022 28.253V28.253ZM9.33022 40.6305H44.3505C45.3585 40.6305 46.3252 41.0309 47.038 41.7437C47.7508 42.4565 48.1512 43.4232 48.1512 44.4312C48.1512 45.4392 47.7508 46.4059 47.038 47.1187C46.3252 47.8315 45.3585 48.2319 44.3505 48.2319H9.33022C8.32221 48.2319 7.35549 47.8315 6.64272 47.1187C5.92995 46.4059 5.52952 45.4392 5.52952 44.4312C5.52952 43.4232 5.92995 42.4565 6.64272 41.7437C7.35549 41.0309 8.32221 40.6305 9.33022 40.6305V40.6305ZM16.7298 60.6094H9.33022C8.34899 60.5682 7.42167 60.1493 6.74198 59.4404C6.06228 58.7316 5.68279 57.7874 5.68279 56.8054C5.68279 55.8233 6.06228 54.8792 6.74198 54.1703C7.42167 53.4614 8.34899 53.0426 9.33022 53.0013H16.7298C17.711 53.0426 18.6384 53.4614 19.3181 54.1703C19.9978 54.8792 20.3772 55.8233 20.3772 56.8054C20.3772 57.7874 19.9978 58.7316 19.3181 59.4404C18.6384 60.1493 17.711 60.5682 16.7298 60.6094V60.6094ZM49.6177 72.9802H46.308C45.3 72.9802 44.3333 72.5798 43.6205 71.867C42.9077 71.1542 42.5073 70.1875 42.5073 69.1795C42.5073 68.1715 42.9077 67.2048 43.6205 66.492C44.3333 65.7792 45.3 65.3788 46.308 65.3788H49.5975C50.6055 65.3788 51.5722 65.7792 52.285 66.492C52.9977 67.2048 53.3982 68.1715 53.3982 69.1795C53.3982 70.1875 52.9977 71.1542 52.285 71.867C51.5722 72.5798 50.6055 72.9802 49.5975 72.9802H49.6177ZM62.7351 60.6027H27.7149C26.7336 60.5614 25.8063 60.1426 25.1266 59.4337C24.4469 58.7248 24.0674 57.7807 24.0674 56.7986C24.0674 55.8165 24.4469 54.8724 25.1266 54.1635C25.8063 53.4547 26.7336 53.0358 27.7149 52.9946H62.7351C63.7163 53.0358 64.6437 53.4547 65.3234 54.1635C66.0031 54.8724 66.3825 55.8165 66.3825 56.7986C66.3825 57.7807 66.0031 58.7248 65.3234 59.4337C64.6437 60.1426 63.7163 60.5614 62.7351 60.6027V60.6027ZM62.7351 48.2252H55.3355C54.3275 48.2252 53.3608 47.8248 52.648 47.112C51.9353 46.3992 51.5348 45.4325 51.5348 44.4245C51.5348 43.4165 51.9353 42.4498 52.648 41.737C53.3608 41.0242 54.3275 40.6238 55.3355 40.6238H62.7351C63.7431 40.6238 64.7099 41.0242 65.4226 41.737C66.1354 42.4498 66.5358 43.4165 66.5358 44.4245C66.5358 45.4325 66.1354 46.3992 65.4226 47.112C64.7099 47.8248 63.7431 48.2252 62.7351 48.2252V48.2252ZM62.7351 35.8544H27.7149C26.7459 35.7967 25.8356 35.3712 25.17 34.6648C24.5044 33.9583 24.1337 33.0243 24.1337 32.0537C24.1337 31.0831 24.5044 30.1491 25.17 29.4427C25.8356 28.7362 26.7459 28.3107 27.7149 28.253H62.7351C63.7163 28.2943 64.6437 28.7131 65.3234 29.422C66.0031 30.1309 66.3825 31.075 66.3825 32.0571C66.3825 33.0392 66.0031 33.9833 65.3234 34.6922C64.6437 35.401 63.7163 35.8199 62.7351 35.8611V35.8544Z" fill="#2666DE"/>
<path d="M137.541 42.1909C139.346 39.4426 140.266 36.2078 140.178 32.9212C140.276 29.5861 139.354 26.3006 137.534 23.5035C135.684 20.8446 133.119 18.7641 130.135 17.5031C126.53 16.013 122.653 15.2935 118.753 15.3909H97.0654V62.9837H110.143V50.2026H118.215L127.054 62.9837H141.127L130.545 47.9558C133.362 46.7131 135.783 44.7186 137.541 42.1909V42.1909ZM124.706 27.4589C126.249 28.7236 127.02 30.5443 127.02 32.9212C127.074 33.9406 126.893 34.9586 126.492 35.8972C126.09 36.8359 125.48 37.6702 124.706 38.3363C123.159 39.6324 120.87 40.2827 117.838 40.2871H110.143V25.5552H117.845C120.881 25.5552 123.168 26.1898 124.706 27.4589Z" fill="#2666DE"/>
<path d="M179.04 24.0484C175.619 22.3501 171.848 21.4793 168.029 21.5062C164.211 21.5331 160.452 22.4569 157.056 24.2031C153.835 25.9308 151.144 28.5027 149.273 31.643C147.34 34.942 146.355 38.7108 146.428 42.5339C146.359 46.3397 147.356 50.0887 149.307 53.3575C151.279 56.5612 154.108 59.1498 157.473 60.8311C164.401 64.0753 172.332 64.4429 179.531 61.8536C182.238 60.8037 184.658 59.1278 186.594 56.9631L180.291 50.1286C178.994 51.4035 177.458 52.4094 175.77 53.0884C173.942 53.7899 171.997 54.1347 170.039 54.1042C167.858 54.1439 165.698 53.6837 163.722 52.7588C161.974 51.9162 160.521 50.5658 159.552 48.8841C158.997 47.9493 158.589 46.9353 158.341 45.8772H189.285C189.332 45.3727 189.386 44.8278 189.433 44.2425C189.48 43.6573 189.513 43.1461 189.513 42.6886C189.621 38.7189 188.649 34.7943 186.702 31.3336C184.884 28.2325 182.228 25.7074 179.04 24.0484V24.0484ZM162.942 31.791C164.575 30.8778 166.42 30.4136 168.29 30.4457C170.152 30.4109 171.989 30.8754 173.611 31.791C175.115 32.6694 176.349 33.9447 177.176 35.4774C177.758 36.564 178.138 37.7468 178.3 38.9686H158.227C158.395 37.7617 158.768 36.5923 159.33 35.511C160.156 33.9533 161.409 32.663 162.942 31.791V31.791Z" fill="#2666DE"/>
<path d="M225.509 41.5114C223.996 40.6505 222.374 39.9987 220.686 39.5741C218.948 39.1259 217.185 38.7844 215.405 38.5516C213.665 38.3229 212.06 38.0561 210.589 37.7511C209.356 37.5325 208.165 37.124 207.057 36.5403C206.639 36.3278 206.29 36.0003 206.052 35.5963C205.813 35.1923 205.695 34.7286 205.712 34.2598C205.712 33.1499 206.317 32.2418 207.535 31.5287C208.752 30.8157 210.669 30.4659 213.306 30.4659C215.26 30.4839 217.206 30.7094 219.112 31.1386C221.214 31.6086 223.227 32.415 225.072 33.5266L229.02 25.0978C226.783 23.8057 224.346 22.8963 221.809 22.407C219.014 21.8111 216.164 21.5068 213.306 21.4989C209.836 21.4136 206.381 21.9936 203.129 23.2075C200.595 24.1443 198.367 25.7564 196.684 27.8693C195.194 29.8325 194.405 32.2391 194.444 34.7038C194.364 36.6881 194.829 38.6564 195.79 40.3948C196.648 41.844 197.864 43.0484 199.321 43.8928C200.835 44.7736 202.472 45.4242 204.178 45.8234C205.945 46.2719 207.705 46.6149 209.459 46.8526C211.201 47.1082 212.822 47.3571 214.275 47.6128C215.488 47.797 216.664 48.1716 217.76 48.7227C218.17 48.9137 218.516 49.2203 218.755 49.6051C218.994 49.9898 219.116 50.436 219.105 50.8888C219.106 51.4587 218.946 52.0173 218.644 52.5005C218.342 52.9836 217.909 53.3717 217.396 53.6199C216.253 54.2926 214.322 54.6087 211.584 54.6087C209.027 54.5989 206.484 54.2298 204.03 53.5123C201.685 52.8729 199.44 51.9131 197.357 50.66L193.408 59.1628C195.756 60.6354 198.335 61.702 201.037 62.3178C204.333 63.1635 207.724 63.584 211.127 63.569C214.682 63.6589 218.223 63.0934 221.574 61.9007C224.139 60.9941 226.409 59.4057 228.139 57.3062C229.648 55.3918 230.453 53.0168 230.42 50.5793C230.517 48.6041 230.05 46.6419 229.074 44.922C228.185 43.5089 226.96 42.3373 225.509 41.5114V41.5114Z" fill="#2666DE"/>
<path d="M267.263 24.0484C263.844 22.3502 260.073 21.4794 256.256 21.5063C252.439 21.5332 248.681 22.4569 245.286 24.2031C242.063 25.9289 239.372 28.5012 237.503 31.6431C235.57 34.942 234.585 38.7108 234.658 42.5339C234.589 46.3397 235.586 50.0887 237.537 53.3575C239.509 56.5612 242.338 59.1498 245.703 60.8311C252.631 64.0753 260.562 64.4429 267.761 61.8536C270.469 60.8017 272.889 59.1236 274.824 56.9564L268.521 50.1219C267.224 51.3968 265.687 52.4027 264 53.0817C262.173 53.7855 260.227 54.1326 258.269 54.1042C256.079 54.1488 253.909 53.6884 251.926 52.7588C250.177 51.9162 248.724 50.5658 247.755 48.8841C247.215 47.949 246.821 46.9374 246.584 45.8839H277.481C277.528 45.3794 277.582 44.8345 277.629 44.2493C277.676 43.664 277.703 43.1528 277.703 42.6954C277.813 38.7262 276.843 34.8017 274.898 31.3403C273.09 28.2396 270.443 25.7121 267.263 24.0484V24.0484ZM251.172 31.791C252.804 30.8778 254.65 30.4136 256.52 30.4457C258.38 30.4101 260.215 30.8748 261.834 31.791C263.342 32.6671 264.578 33.9428 265.406 35.4774C265.985 36.5653 266.365 37.7475 266.53 38.9687H246.463C246.631 37.7617 247.004 36.5923 247.566 35.511C248.391 33.9542 249.642 32.6641 251.172 31.791V31.791Z" fill="#2666DE"/>
<path d="M296.915 27.4791V22.0976H285.601V62.9501H297.447V43.6775C297.447 39.7759 298.447 36.9035 300.447 35.0603C302.447 33.2172 305.066 32.2933 308.304 32.2889C308.761 32.2889 309.192 32.2889 309.595 32.2889C309.999 32.2889 310.457 32.3561 310.941 32.4032V21.5056C307.538 21.401 304.165 22.1723 301.146 23.7457C299.48 24.666 298.036 25.9404 296.915 27.4791V27.4791Z" fill="#2666DE"/>
<path d="M336.913 49.9201L325.619 22.111H313.396L330.556 62.9635H342.779L360.013 22.111H348.625L336.913 49.9201Z" fill="#2666DE"/>
<path d="M392.746 50.3506C391.211 51.5437 389.459 52.4278 387.587 52.9539C385.483 53.6585 383.242 53.8522 381.048 53.519C379.089 53.1905 377.285 52.2483 375.896 50.8282C375.741 50.6668 375.586 50.4986 375.438 50.3304L402.628 35.9214C401.591 32.1401 399.504 28.7301 396.608 26.0867C393.948 23.7369 390.687 22.1739 387.19 21.5729C383.453 20.998 379.634 21.2958 376.031 22.443C372.429 23.5902 369.14 25.5556 366.424 28.1854C363.846 30.7884 362.025 34.044 361.157 37.6031C360.268 41.3249 360.427 45.2199 361.614 48.8572C362.673 52.5007 364.728 55.7763 367.547 58.3153C370.365 60.8087 373.826 62.4612 377.537 63.0846C385.111 64.1743 392.807 62.212 398.935 57.6291C401.218 55.8401 403.044 53.5346 404.263 50.9022L396.238 46.1934C395.339 47.7814 394.155 49.1906 392.746 50.3506V50.3506ZM371.974 38.4709C372.246 36.6906 373.048 35.0335 374.274 33.715C375.566 32.3696 377.19 31.3901 378.983 30.8762C380.737 30.2968 382.616 30.2038 384.419 30.6071C386.082 31.008 387.61 31.8437 388.845 33.0288C389.385 33.547 389.86 34.1299 390.257 34.7644L372.391 44.2224C371.828 42.3597 371.685 40.3953 371.974 38.4709Z" fill="#2666DE"/>
<path d="M443.306 44.9287C442.428 43.516 441.215 42.3421 439.774 41.5114C438.265 40.6494 436.644 39.9976 434.958 39.5741C433.22 39.1259 431.457 38.7844 429.677 38.5516C427.933 38.3229 426.325 38.0561 424.854 37.7511C423.624 37.5318 422.435 37.1234 421.329 36.5403C420.911 36.3278 420.562 36.0003 420.324 35.5963C420.086 35.1923 419.968 34.7286 419.984 34.2598C419.984 33.1499 420.589 32.2418 421.807 31.5287C423.024 30.8157 424.942 30.4659 427.579 30.4659C429.532 30.4839 431.478 30.7094 433.384 31.1386C435.486 31.6086 437.499 32.415 439.344 33.5266L443.293 25.0978C441.055 23.8057 438.618 22.8963 436.081 22.407C433.286 21.8115 430.437 21.5071 427.579 21.4989C424.108 21.4136 420.653 21.9936 417.401 23.2075C414.855 24.1389 412.614 25.7515 410.923 27.8693C409.432 29.8325 408.643 32.2391 408.683 34.7038C408.603 36.6881 409.068 38.6564 410.028 40.3948C410.886 41.844 412.102 43.0484 413.56 43.8928C415.073 44.7747 416.71 45.4254 418.416 45.8234C420.186 46.2539 421.948 46.597 423.69 46.8526C425.433 47.1082 427.054 47.3571 428.514 47.6128C429.738 47.7935 430.925 48.1682 432.032 48.7227C432.442 48.9137 432.788 49.2203 433.027 49.6051C433.266 49.9898 433.388 50.436 433.377 50.8888C433.378 51.4587 433.219 52.0173 432.916 52.5005C432.614 52.9836 432.182 53.3717 431.669 53.6199C430.525 54.2791 428.588 54.6087 425.856 54.6087C423.299 54.5989 420.756 54.2298 418.302 53.5123C415.967 52.8687 413.731 51.9091 411.656 50.66L407.707 59.1628C410.048 60.6306 412.617 61.6969 415.309 62.3178C418.605 63.1637 421.996 63.5842 425.399 63.569C428.952 63.659 432.491 63.0935 435.839 61.9007C438.406 60.994 440.678 59.4057 442.411 57.3062C443.918 55.3909 444.721 53.016 444.685 50.5793C444.771 48.6031 444.293 46.6432 443.306 44.9287V44.9287Z" fill="#2666DE"/>
</svg>
